<svg width="1040" height="1044" viewBox="0 0 1040 1044" fill="none" xmlns="http://www.w3.org/2000/svg">
<rect x="323.509" y="521.089" width="289.516" height="290.867" rx="45" transform="rotate(-42.1987 323.509 521.089)" fill="#97999B"/>
<path d="M1040 404.387V0H670.867C373.28 21.7747 308.993 271.319 306.919 395.055C616.949 90.2094 901.057 265.444 1040 404.387Z" fill="#7CB649"/>
<path d="M404.387 0L0 0L0 369.133C21.7747 666.72 271.319 731.007 395.055 733.081C90.2094 423.051 265.444 138.943 404.387 0Z" fill="#E12D73"/>
<path d="M0 638.724V1043.11H369.133C666.72 1021.34 731.007 771.791 733.081 648.056C423.051 952.901 138.943 777.667 0 638.724Z" fill="#F49A2F"/>
<path d="M635.613 1043.11H1040V673.978C1018.23 376.391 768.681 312.104 644.945 310.03C949.791 620.06 774.556 904.167 635.613 1043.11Z" fill="#4790C2"/>
</svg>
